<svg id="Слой_1" xmlns="http://www.w3.org/2000/svg" xmlns:xlink="http://www.w3.org/1999/xlink" width="590" height="40" viewBox="0 0 590 40"><path fill="#587DA5" d="M40 33a7 7 0 0 1-7 7H7a7 7 0 0 1-7-7V7a7 7 0 0 1 7-7h26a7 7 0 0 1 7 7v26z"/><path fill="#FFF" d="M20.244 27h1.435s.432.044.653-.197c.203-.222.197-.592.197-.592s-.028-1.926.864-2.213c.88-.283 2.012 1.896 3.21 2.73.906.627 1.595.496 1.595.496l3.204-.043s1.676-.104.88-1.438c-.064-.11-.462-.987-2.382-2.792-2.01-1.891-1.74-1.58.68-4.85 1.475-1.99 2.064-3.206 1.88-3.727-.176-.496-1.26-.365-1.26-.365l-3.607.023s-.27-.036-.467.084c-.193.117-.318.393-.318.393s-.57 1.54-1.332 2.85c-1.606 2.764-2.25 2.91-2.512 2.738-.61-.4-.458-1.607-.458-2.465 0-2.678.4-3.795-.78-4.084-.393-.096-.682-.16-1.685-.17-1.288-.013-2.378.004-2.994.31-.412.205-.73.658-.535.685.238.033.778.148 1.064.543.37.51.355 1.654.355 1.654s.213 3.153-.495 3.544c-.486.271-1.154-.278-2.586-2.785-.734-1.285-1.288-2.705-1.288-2.705s-.106-.265-.298-.407a1.476 1.476 0 0 0-.554-.227l-3.43.022s-.514.015-.703.242c-.167.2-.012.618-.012.618s2.684 6.271 5.723 9.478C17.08 27.284 20.245 27 20.244 27z"/><path fill="#3D5A98" d="M90 33a7 7 0 0 1-7 7H57a7 7 0 0 1-7-7V7a7 7 0 0 1 7-7h26a7 7 0 0 1 7 7v26z"/><path fill="#FFF" d="M77 40V24h5.127l.778-6H77v-3.408c0-1.748.413-2.592 2.92-2.592H83V6.252c0-.073-2.24-.237-4.446-.237-4.61 0-7.554 2.812-7.554 7.98V18h-6v6h6v16h6z"/><linearGradient id="SVGID_1_" gradientUnits="userSpaceOnUse" x1="-1556.641" y1="1148.399" x2="-1556.641" y2="1108.399" gradientTransform="translate(1676.64 -1108.398)"><stop offset="0" stop-color="#f87e27"/><stop offset="1" stop-color="#f7a336"/></linearGradient><path fill="url(#SVGID_1_)" d="M140 33a7 7 0 0 1-7 7h-26a7 7 0 0 1-7-7V7a7 7 0 0 1 7-7h26a7 7 0 0 1 7 7v26z"/><path fill="#FFF" d="M125.205 23.836c-.425.195-1.334.673-2.548 1.018l3.445 3.447a1.845 1.845 0 0 1 0 2.613 1.844 1.844 0 0 1-2.612 0l-3.453-3.453-3.453 3.453a1.847 1.847 0 0 1-2.613-2.611l3.422-3.421c-1.288-.356-2.206-.866-2.53-1.007-.82-.357-1.847-1.007-1.847-2.025 0-1.021.938-1.777 1.848-1.777.91 0 2.518 1.451 5.13 1.451 2.522 0 4.195-1.451 5.14-1.451.945 0 1.85.756 1.85 1.777-.002 1.021-.957 1.615-1.778 1.99l-.001-.004zm-5.208-4.11a6.139 6.139 0 1 1 0-12.277 6.139 6.139 0 1 1 0 12.277zm0-8.733a2.594 2.594 0 0 0-2.596 2.596 2.598 2.598 0 1 0 2.597-2.598l-.001.002z"/><path fill="#F5F5F5" d="M189 32.5a6.5 6.5 0 0 1-6.5 6.5h-26a6.5 6.5 0 0 1-6.5-6.5v-26a6.5 6.5 0 0 1 6.5-6.5h26a6.5 6.5 0 0 1 6.5 6.5v26z"/><path fill="#E6E6E6" d="M182.75 1c3.31 0 6.25 2.566 6.25 5.875v26c0 3.311-2.94 6.125-6.25 6.125h-26c-3.31 0-5.75-2.816-5.75-6.125v-26C151 3.565 153.44 1 156.75 1H183m-.25-1h-26C152.883 0 150 3.01 150 6.875v26c0 3.866 2.883 7.125 6.75 7.125h26c3.865 0 7.25-3.26 7.25-7.125v-26C190 3.01 186.615 0 182.75 0z"/><path fill="#E20613" d="M174.657 8.016h-3.48c-3.42 0-6.32 2.603-6.32 7.657 0 3.03 1.405 5.269 3.908 6.37l-4.67 8.45c-.152.276 0 .491.244.491h2.166c.184 0 .305-.063.367-.215l4.243-8.299h1.528v8.299c0 .09.09.215.21.215h1.896c.183 0 .244-.092.244-.244V8.322c0-.214-.123-.306-.336-.306zm-2.014 12.496h-1.283c-2.015 0-3.968-1.47-3.968-5.146 0-3.83 1.832-5.39 3.693-5.39h1.558v10.536z"/><path fill="#DD4B39" d="M240 33a7 7 0 0 1-7 7h-26a7 7 0 0 1-7-7V7a7 7 0 0 1 7-7h26a7 7 0 0 1 7 7v26z"/><path d="M219.557 12c.156 0 .332.33.53.517.187.196.372.48.552.767.172.27.325.61.458.977.11.368.165.807.165 1.297-.015.897-.212 1.62-.593 2.16-.186.26-.383.504-.592.725-.23.22-.477.446-.736.674a3.565 3.565 0 0 0-.413.527c-.15.204-.225.44-.225.71 0 .262.076.478.23.648.13.165.255.309.378.43l.848.697c.528.434.99.91 1.387 1.434.374.529.57 1.227.585 2.08 0 1.215-.535 2.293-1.604 3.229-1.108.972-2.708 1.474-4.8 1.506-1.75-.017-3.057-.39-3.92-1.124-.87-.684-1.307-1.502-1.307-2.455 0-.464.143-.98.427-1.552.274-.569.771-1.069 1.492-1.502a7.837 7.837 0 0 1 2.55-.931 19.93 19.93 0 0 1 2.197-.219c-.18-.238-.34-.49-.48-.766a1.736 1.736 0 0 1-.248-.943c0-.224.03-.409.094-.557l.152-.43a7.194 7.194 0 0 1-.803.048c-1.33-.017-2.345-.437-3.042-1.26-.728-.768-1.093-1.66-1.093-2.68 0-1.233.517-2.35 1.55-3.354.712-.587 1.45-1.104 2.216-1.286.758-.155 1.468-.37 2.13-.37h5l-1.545 1-1.54.003zm.964 14.62c0-.638-.206-1.192-.62-1.665-.438-.45-1.12-1-2.053-1.652a5.404 5.404 0 0 0-.56-.023c-.128-.018-.454 0-.98.051a9.96 9.96 0 0 0-1.588.354 15.89 15.89 0 0 0-.538.219c-.23.105-.465.261-.703.455-.23.203-.427.455-.586.762-.183.314-.274.697-.274 1.148 0 .879.397 1.604 1.193 2.178.756.57 1.79.865 3.103.884 1.178-.019 2.077-.278 2.697-.784.605-.505.908-1.147.909-1.927zm-3.483-7.355c.658-.024 1.206-.26 1.645-.71.21-.32.348-.647.408-.982.035-.335.055-.617.055-.846 0-.99-.252-1.987-.756-2.992a3.346 3.346 0 0 0-.935-1.177 2.39 2.39 0 0 0-1.36-.454c-.675.016-1.24.29-1.687.82a3.108 3.108 0 0 0-.543 1.865c0 .906.265 1.85.793 2.832.257.458.587.846.99 1.165.406.32.87.478 1.39.479zM219.557 12c.156 0 .332.33.53.517.187.196.372.48.552.767.172.27.325.61.458.977.11.368.165.807.165 1.297-.015.897-.212 1.62-.593 2.16-.186.26-.383.504-.592.725-.23.22-.477.446-.736.674a3.565 3.565 0 0 0-.413.527c-.15.204-.225.44-.225.71 0 .262.076.478.23.648.13.165.255.309.378.43l.848.697c.528.434.99.91 1.387 1.434.374.529.57 1.227.585 2.08 0 1.215-.535 2.293-1.604 3.229-1.108.972-2.708 1.474-4.8 1.506-1.75-.017-3.057-.39-3.92-1.124-.87-.684-1.307-1.502-1.307-2.455 0-.464.143-.98.427-1.552.274-.569.771-1.069 1.492-1.502a7.837 7.837 0 0 1 2.55-.931 19.93 19.93 0 0 1 2.197-.219c-.18-.238-.34-.49-.48-.766a1.736 1.736 0 0 1-.248-.943c0-.224.03-.409.094-.557l.152-.43a7.194 7.194 0 0 1-.803.048c-1.33-.017-2.345-.437-3.042-1.26-.728-.768-1.093-1.66-1.093-2.68 0-1.233.517-2.35 1.55-3.354.712-.587 1.45-1.104 2.216-1.286.758-.155 1.468-.37 2.13-.37h5l-1.545 1-1.54.003zm.964 14.62c0-.638-.206-1.192-.62-1.665-.438-.45-1.12-1-2.053-1.652a5.404 5.404 0 0 0-.56-.023c-.128-.018-.454 0-.98.051a9.96 9.96 0 0 0-1.588.354 15.89 15.89 0 0 0-.538.219c-.23.105-.465.261-.703.455-.23.203-.427.455-.586.762-.183.314-.274.697-.274 1.148 0 .879.397 1.604 1.193 2.178.756.57 1.79.865 3.103.884 1.178-.019 2.077-.278 2.697-.784.605-.505.908-1.147.909-1.927zm-3.483-7.355c.658-.024 1.206-.26 1.645-.71.21-.32.348-.647.408-.982.035-.335.055-.617.055-.846 0-.99-.252-1.987-.756-2.992a3.346 3.346 0 0 0-.935-1.177 2.39 2.39 0 0 0-1.36-.454c-.675.016-1.24.29-1.687.82a3.108 3.108 0 0 0-.543 1.865c0 .906.265 1.85.793 2.832.257.458.587.846.99 1.165.406.32.87.478 1.39.479zM226 16h1v7h-1v-7zm4 3v1h-7v-1h7zm-4-3h1v7h-1v-7zm4 3v1h-7v-1h7z" fill="#FFF"/><linearGradient id="SVGID_2_" gradientUnits="userSpaceOnUse" x1="-1406.641" y1="1148.399" x2="-1406.641" y2="1108.399" gradientTransform="translate(1676.64 -1108.398)"><stop offset="0" stop-color="#4c68ac"/><stop offset="1" stop-color="#5181b1"/></linearGradient><path fill="url(#SVGID_2_)" d="M290 33a7 7 0 0 1-7 7h-26a7 7 0 0 1-7-7V7a7 7 0 0 1 7-7h26a7 7 0 0 1 7 7v26z"/><path fill="#FAA61A" d="M273.455 20.485C273.34 18.18 271.7 17 269.717 17h-.074c-2.29 0-3.557 1.668-3.557 3.8 0 2.384 1.535 3.79 3.547 3.79 2.244 0 3.721-1.662 3.826-3.689l-.004-.416zm-3.64-5.96c1.53 0 3.185.703 4.185 1.806v.005c0-.53.18-.928.652-.928l.039-.002c.742 0 .854.732.854.965l-.017 8.232c-.053.539.521.813.85.472 1.268-1.358 2.777-6.984-.795-10.244-3.33-3.038-7.8-2.537-10.176-.83-2.525 1.817-4.145 5.837-2.574 9.612 1.713 4.119 6.61 5.348 9.52 4.121 1.476-.621 2.153 1.457.625 2.137-2.313 1.027-8.752.925-11.761-4.508-2.03-3.668-1.924-10.12 3.467-13.464 4.12-2.56 9.557-1.85 12.834 1.72 3.428 3.73 3.227 10.716-.113 13.434-1.516 1.233-3.764.03-3.75-1.767l-.016-.589c-1.057 1.091-2.459 1.729-3.988 1.729-3.02 0-5.594-2.77-5.594-5.92.002-3.18 2.738-5.98 5.758-5.981"/><path fill="#55ACEE" d="M340 33a7 7 0 0 1-7 7h-26a7 7 0 0 1-7-7V7a7 7 0 0 1 7-7h26a7 7 0 0 1 7 7v26z"/><path fill="#FFF" d="M316.732 29.145c-2.664 0-5.146-.776-7.232-2.119.37.043.745.065 1.126.065a9.46 9.46 0 0 0 5.86-2.021 4.716 4.716 0 0 1-4.408-3.276 4.787 4.787 0 0 0 2.131-.08 4.722 4.722 0 0 1-3.786-4.627v-.06a4.681 4.681 0 0 0 2.138.59 4.713 4.713 0 0 1-2.1-3.927c0-.866.232-1.676.641-2.374a13.396 13.396 0 0 0 9.729 4.93 4.755 4.755 0 0 1-.122-1.075 4.715 4.715 0 0 1 4.72-4.717 4.71 4.71 0 0 1 3.443 1.49 9.433 9.433 0 0 0 2.995-1.145 4.748 4.748 0 0 1-2.074 2.61 9.418 9.418 0 0 0 2.71-.742 9.66 9.66 0 0 1-2.354 2.443c.012.2.016.405.016.61-.005 6.234-4.752 13.425-13.433 13.425"/><path fill="#E72C23" d="M390 33a7 7 0 0 1-7 7h-26a7 7 0 0 1-7-7V7a7 7 0 0 1 7-7h26a7 7 0 0 1 7 7v26z"/><path fill="#FFF" d="M382.953 23.42c-.221 4.111-1.01 5.229-4.612 5.418-4.686.248-13.06.184-16.69-.004-3.59-.186-4.377-1.359-4.596-5.443-.113-2.225-.02-5.636.045-6.854.215-4.048 1.002-5.2 4.59-5.415 3.125-.185 12.021-.134 16.66.03 3.604.127 4.387 1.853 4.604 5.933.097 1.852.03 5.703-.001 6.335zM367 15.742v8.512l8.328-4.256L367 15.742z"/><path fill="#F5F5F5" d="M439 33.5a6.5 6.5 0 0 1-6.5 6.5h-26a6.5 6.5 0 0 1-6.5-6.5v-26a6.5 6.5 0 0 1 6.5-6.5h26a6.5 6.5 0 0 1 6.5 6.5v26z"/><path fill="#E6E6E6" d="M433 1c3.31 0 6 2.69 6 6v26c0 3.311-2.94 6-6.25 6h-26c-3.311 0-5.75-2.689-5.75-6V7c0-3.31 2.439-6 5.75-6H433m-.25-1h-26C402.883 0 400 3.134 400 7v26c0 3.866 2.883 7 6.75 7h26c3.865 0 7.25-3.134 7.25-7V7c0-3.866-3.26-7-7.125-7h-.125z"/><path fill="#FF0084" d="M427.98 14.07a5.93 5.93 0 1 1-.003 11.861 5.93 5.93 0 0 1 .001-11.861h.002z"/><path fill="#0063DB" d="M411.977 14.07a5.933 5.933 0 0 1 5.934 5.93 5.932 5.932 0 0 1-11.862 0 5.928 5.928 0 0 1 5.928-5.93z"/><path fill="#FF900C" d="M490 33a7 7 0 0 1-7 7h-26a7 7 0 0 1-7-7V7a7 7 0 0 1 7-7h26a7 7 0 0 1 7 7v26z"/><path fill="#FFF" d="M458 12.25V7.313c13.635 0 24.688 11.053 24.688 24.688h-4.938c0-10.907-8.842-19.75-19.75-19.751zM474.047 32h-4.938c0-6.137-4.979-11.109-11.11-11.109v-4.938c8.862 0 16.047 7.186 16.048 16.047zM458 29.008a2.993 2.993 0 1 1 5.985.001 2.993 2.993 0 0 1-5.985-.001z"/><path fill="#15374C" d="M540 33a7 7 0 0 1-7 7h-26a7 7 0 0 1-7-7V7a7 7 0 0 1 7-7h26a7 7 0 0 1 7 7v26z"/><defs><path id="SVGID_3_" d="M504.167 5H534v29.863h-29.833z"/></defs><clipPath id="SVGID_4_"><use xlink:href="#SVGID_3_" overflow="visible"/></clipPath><path clip-path="url(#SVGID_4_)" fill="#00B0EA" d="M520.027 6.92c-1.977 0-3.85.41-5.547 1.145L511.41 5h-.006a14.023 14.023 0 0 0-7.238 7.28l3.074 3.07-.002.004c-.742 1.704-1.188 3.56-1.188 5.541 0 7.717 6.254 13.976 13.977 13.976 7.715 0 13.972-6.261 13.972-13.978S527.742 6.919 520.027 6.92"/><defs><path id="SVGID_5_" d="M504.167 5H534v29.863h-29.833z"/></defs><clipPath id="SVGID_6_"><use xlink:href="#SVGID_5_" overflow="visible"/></clipPath><path clip-path="url(#SVGID_6_)" fill="#15374C" d="M518.604 26.695c1.4-3.25 3.998-5.86 7.237-7.28h.003L514.483 8.07h-.01a14.005 14.005 0 0 0-7.234 7.282l11.365 11.343z"/><defs><path id="SVGID_7_" d="M504.167 5H534v29.863h-29.833z"/></defs><clipPath id="SVGID_8_"><use xlink:href="#SVGID_7_" overflow="visible"/></clipPath><path clip-path="url(#SVGID_8_)" fill="#15374C" d="M526.654 23.29a8.141 8.141 0 0 0-4.204 4.229l5.306 1.097-1.102-5.326z"/><defs><path id="SVGID_9_" d="M504.167 5H534v29.863h-29.833z"/></defs><clipPath id="SVGID_10_"><use xlink:href="#SVGID_9_" overflow="visible"/></clipPath><path clip-path="url(#SVGID_10_)" fill="#FFF" d="M526.81 24.04l.946 4.578c0-.033-.47-2.298-.946-4.578"/><defs><path id="SVGID_11_" d="M504.167 5H534v29.863h-29.833z"/></defs><clipPath id="SVGID_12_"><use xlink:href="#SVGID_11_" overflow="visible"/></clipPath><path clip-path="url(#SVGID_12_)" fill="#FFF" d="M526.654 23.292l-.813-3.876h-.004a14.034 14.034 0 0 0-7.237 7.279l3.854.824a8.17 8.17 0 0 1 4.2-4.227"/><style>.st21{fill:url(#SVGID_13_)}</style><linearGradient id="SVGID_13_" gradientUnits="userSpaceOnUse" x1="558.404" y1="2.014" x2="581.581" y2="42.157" gradientTransform="matrix(1 0 0 -1 0 42.2)"><stop offset="0" stop-color="#edc15d"/><stop offset=".31" stop-color="#e15533"/><stop offset=".674" stop-color="#a91f70"/><stop offset="1" stop-color="#5a438f"/></linearGradient><path class="st21" d="M589.9 28.3c-.1 2.1-.4 3.6-.9 4.8-.5 1.3-1.2 2.4-2.3 3.5-1.1 1.1-2.2 1.8-3.5 2.3-1.3.5-2.7.8-4.9.9-2.1.1-2.8.1-8.3.1s-6.2 0-8.3-.1c-2.1-.1-3.6-.4-4.9-.9-1.3-.5-2.4-1.2-3.5-2.3-1.1-1.1-1.8-2.2-2.3-3.5-.5-1.3-.8-2.7-.9-4.8s-.1-2.8-.1-8.2 0-6.1.1-8.2c.1-2.1.4-3.6.9-4.8.5-1.3 1.2-2.4 2.3-3.5 1.1-1.1 2.2-1.8 3.5-2.3 1.3-.5 2.7-.8 4.9-.9 2-.3 2.6-.3 8.2-.3 5.5 0 6.2 0 8.3.1s3.6.4 4.9.9c1.3.5 2.4 1.2 3.5 2.3 1.1 1.1 1.8 2.2 2.3 3.5s.8 2.7.9 4.8c.1 2.1.1 2.8.1 8.2.1 5.6.1 6.2 0 8.4zM586.3 12c-.1-1.9-.4-3-.7-3.7-.4-.9-.8-1.6-1.5-2.3s-1.4-1.1-2.3-1.5c-.7-.3-1.8-.6-3.7-.7-2.1-.1-2.7-.1-8.2-.1s-6.1 0-8.2.1c-1.9.1-3 .4-3.7.7-.9.4-1.6.8-2.3 1.5s-1.1 1.4-1.5 2.3c-.3.7-.6 1.8-.7 3.7-.1 2.1-.1 2.7-.1 8.1 0 5.3 0 6 .1 8.1.1 1.9.4 3 .7 3.7.4.9.8 1.6 1.5 2.3s1.4 1.1 2.3 1.5c.7.3 1.8.6 3.7.7 2.1.1 2.7.1 8.2.1s6.1 0 8.2-.1c1.9-.1 3-.4 3.7-.7.9-.4 1.6-.8 2.3-1.5s1.1-1.4 1.5-2.3c.3-.7.6-1.8.7-3.7.1-2.1.1-2.7.1-8.1 0-5.4 0-6-.1-8.1zm-16.4 18.4c-5.8 0-10.3-4.6-10.3-10.3 0-5.7 4.6-10.3 10.3-10.3 5.7 0 10.3 4.6 10.3 10.3s-4.6 10.3-10.3 10.3zm0-17c-3.7 0-6.7 3-6.7 6.6 0 3.7 3 6.6 6.7 6.6s6.7-3 6.7-6.6c0-3.6-3.1-6.6-6.7-6.6zm10.7-1.6c-1.3 0-2.4-1.1-2.4-2.4s1.1-2.4 2.4-2.4 2.4 1 2.4 2.3c0 1.4-1.1 2.5-2.4 2.5z"/></svg>